<svg xmlns="http://www.w3.org/2000/svg" width="127" height="1080.44" viewBox="0 0 127 1080.44">
  <g id="Group_123" data-name="Group 123" transform="translate(-48.967)">
    <g id="Group_2" data-name="Group 2">
      <g id="Group_1" data-name="Group 1">
        <path id="Path_1" data-name="Path 1" d="M23.467,0V1080.44" transform="translate(26)" fill="none" stroke="#fff" stroke-width="1"/>
        <path id="Path_1-2" data-name="Path 1" d="M23.467,0V1080.44" transform="translate(35)" fill="none" stroke="#fff" stroke-width="1"/>
        <path id="Path_1-3" data-name="Path 1" d="M23.467,0V1080.44" transform="translate(44)" fill="none" stroke="#fff" stroke-width="1"/>
        <path id="Path_1-4" data-name="Path 1" d="M23.467,0V1080.44" transform="translate(53)" fill="none" stroke="#fff" stroke-width="1"/>
        <path id="Path_1-5" data-name="Path 1" d="M23.467,0V1080.44" transform="translate(62)" fill="none" stroke="#fff" stroke-width="1"/>
        <path id="Path_1-6" data-name="Path 1" d="M23.467,0V1080.44" transform="translate(71)" fill="none" stroke="#fff" stroke-width="1"/>
        <path id="Path_1-7" data-name="Path 1" d="M23.467,0V1080.44" transform="translate(80)" fill="none" stroke="#fff" stroke-width="1"/>
        <path id="Path_1-8" data-name="Path 1" d="M23.467,0V1080.44" transform="translate(89)" fill="none" stroke="#fff" stroke-width="1"/>
        <path id="Path_1-9" data-name="Path 1" d="M23.467,0V1080.44" transform="translate(98)" fill="none" stroke="#fff" stroke-width="1"/>
        <path id="Path_1-10" data-name="Path 1" d="M23.467,0V1080.44" transform="translate(107)" fill="none" stroke="#fff" stroke-width="1"/>
        <path id="Path_1-11" data-name="Path 1" d="M23.467,0V1080.44" transform="translate(116)" fill="none" stroke="#fff" stroke-width="1"/>
        <path id="Path_1-12" data-name="Path 1" d="M23.467,0V1080.44" transform="translate(125)" fill="none" stroke="#fff" stroke-width="1"/>
        <path id="Path_1-13" data-name="Path 1" d="M23.467,0V1080.44" transform="translate(134)" fill="none" stroke="#fff" stroke-width="1"/>
        <path id="Path_1-14" data-name="Path 1" d="M23.467,0V1080.44" transform="translate(143)" fill="none" stroke="#fff" stroke-width="1"/>
        <path id="Path_1-15" data-name="Path 1" d="M23.467,0V1080.44" transform="translate(152)" fill="none" stroke="#fff" stroke-width="1"/>
      </g>
    </g>
  </g>
</svg>
